<svg width="683" height="418" viewBox="0 0 683 418" xmlns="http://www.w3.org/2000/svg">
  <path d="M277.735 416.781L143 83.3762V0.638977L278 334.699V416.674L277.735 416.781Z"></path>
  <path d="M547.735 417.142L413 83.7372V1L548 335.06V417.035L547.735 417.142Z"></path>
  <path d="M278.265 417.142L413 83.7372V1L278 335.06V417.035L278.265 417.142Z"></path>
  <path d="M548.265 416.142L683 82.7372V0L548 334.06V416.035L548.265 416.142Z"></path>
  <path d="M8.26468 417.142L143 83.7372V1L8 335.06V417.035L8.26468 417.142Z"></path>
  <path d="M285.215 256.007L0 256.16L12.5305 225.153L297.745 225L285.215 256.007Z"></path>
  <path d="M575.215 256.007L290 256.16L302.531 225.153L587.745 225L575.215 256.007Z"></path>
  <style>
    @media (prefers-color-scheme: light) {
      :root {
        filter: none;
      }
    }

    @media (prefers-color-scheme: dark) {
      :root {
        filter: invert(100%);
      }
    }
  </style>
</svg>